<svg width="145" height="145" viewBox="0 0 145 145" fill="none" xmlns="http://www.w3.org/2000/svg">
<circle cx="72.5207" cy="72.0539" r="72.0539" fill="white"/>
<path d="M130.823 41.8109C121.293 24.0184 106.824 12.3745 87.2642 7.16743C85.1506 6.61022 82.9794 6.28357 80.8274 5.84164C77.8684 5.515 74.8902 5.20757 71.9119 5.18835C68.6071 5.16914 65.3406 5.47657 62.0742 5.84164C61.9973 5.88007 61.9397 5.9185 61.8628 5.93772C47.9132 8.08972 36.0003 14.2383 26.028 24.1529C18.2462 31.8963 12.8277 41.1 9.38836 51.495C9.177 52.1098 8.88879 52.7055 8.908 53.3011C9.71501 52.4173 10.1377 51.226 10.7142 50.1116C8.37 57.6052 6.90971 65.2141 7.52457 73.1112C7.67828 72.7653 7.75514 72.4002 7.77436 72.0351C7.98571 69.2299 8.17786 66.4246 8.56214 63.6385C9.25386 58.7196 10.4067 53.916 12.136 49.2661C12.1937 49.1316 12.2513 48.9971 12.2897 48.8434C12.3474 48.7089 12.405 48.5552 12.4627 48.4207C12.5203 48.4591 12.5779 48.5168 12.6356 48.5552C12.5779 48.7089 12.5203 48.8626 12.4434 49.0163C12.3858 49.1701 12.3474 49.3238 12.2897 49.4775C12.2513 49.5928 12.2321 49.7273 12.1937 49.8426C10.2146 55.8759 8.98486 62.0629 8.71586 68.3844C8.71586 68.346 8.71586 68.2884 8.69665 68.2499C8.67743 69.7871 8.29314 71.305 8.58136 72.8422C8.54293 72.2081 8.60057 71.574 8.639 70.9591C8.639 71.4011 8.67743 71.8238 8.67743 72.2657C8.67743 72.6884 8.67743 73.1112 8.67743 73.5531C8.86957 73.4186 8.85036 73.3033 8.86957 73.1688C9.06172 68.8264 9.29229 64.5031 10.0801 60.2183C11.5404 52.302 14.3457 44.8852 18.6113 38.0834C21.2821 33.7986 24.4524 29.898 28.1416 26.3818C35.6352 19.2533 44.224 14.1423 54.1578 11.2601C57.9431 10.1649 61.8052 9.31944 65.7057 8.97359C71.0281 8.51244 76.3504 8.83908 81.6344 9.85745C94.2198 12.2785 105.441 17.9659 114.453 27.0735C115.106 27.7268 115.586 28.0535 116.143 28.8412C117.412 30.6282 118.776 32.3575 120.102 34.106C123.041 38.0257 125.443 42.2721 127.326 46.749C129.728 52.4365 131.131 58.4314 131.707 64.5992C131.784 65.1756 131.861 65.7328 131.957 66.3093C131.976 66.5591 132.014 66.8088 132.034 67.0586C131.707 67.3084 131.784 67.5198 132.13 67.6927C132.13 67.8464 132.13 67.9809 132.13 68.1346C132.091 68.1539 132.053 68.1539 132.014 68.1346C131.976 68.0578 132.034 67.9233 131.899 67.9233C131.88 67.9233 131.822 68.0386 131.822 68.0962C131.822 68.6726 131.842 69.2683 131.861 69.8447C131.918 69.8639 131.957 69.8639 132.014 69.8639C132.053 70.2866 132.014 70.7094 131.995 71.1513C132.014 70.7286 132.072 70.2866 132.014 69.8639C131.957 69.8639 131.918 69.8639 131.861 69.8447C131.822 71.9007 131.784 73.9566 131.745 75.9933C131.745 76.0894 131.745 76.2047 131.745 76.3007C131.573 77.223 131.38 78.1261 131.438 79.0676C131.457 79.1829 131.476 79.279 131.496 79.3943C131.265 79.644 131.207 79.9515 131.246 80.2781C131.111 81.0467 131.111 81.8345 130.996 82.5838C130.266 86.9455 129.075 91.2111 127.403 95.3038C124.521 102.394 120.467 108.754 115.279 114.403C114.76 114.96 114.241 115.536 113.722 116.094C113.761 116.132 113.818 116.19 113.857 116.228C116.028 114.537 117.969 112.597 119.967 110.502C119.909 111.079 119.909 111.079 119.736 111.329C118.315 113.557 116.585 115.556 114.741 117.419C110.821 121.378 106.383 124.702 101.598 127.545C101.233 127.738 100.849 127.949 100.503 128.141C100.561 128.468 101.022 128.064 100.964 128.487C99.4269 129.352 97.8898 130.197 96.3718 131.062C96.3718 131.119 96.3718 131.177 96.3718 131.235C96.5448 131.177 96.7177 131.119 96.8714 131.062C104.711 127.642 111.59 122.857 117.45 116.632C120.294 113.615 122.868 110.406 125.04 106.852C125.232 106.544 125.424 106.237 125.616 105.929C125.501 105.929 125.405 105.929 125.328 105.968C125.405 105.949 125.501 105.929 125.616 105.929C125.712 105.776 125.789 105.603 125.885 105.449C125.943 105.353 126 105.257 126.077 105.161C126.173 105.007 126.269 104.834 126.346 104.68C126.654 104.2 127.019 103.758 127.096 103.162C127.172 103.105 127.307 103.066 127.345 102.99C128.056 101.779 128.633 100.492 129.228 99.2043C129.305 99.0313 129.267 98.9161 129.055 98.8776C129.094 98.8008 129.132 98.7239 129.171 98.6471C129.497 98.8392 129.536 98.5318 129.632 98.3588C129.709 98.2051 129.805 97.9746 129.497 97.9361C129.613 97.8016 129.517 97.4942 129.824 97.5134L129.805 97.4942C129.824 97.0715 129.92 96.668 130.304 96.399H130.324C130.228 96.0723 130.324 95.8225 130.612 95.6304C130.497 95.4575 130.612 95.2845 130.669 95.1308C131.63 92.7675 132.341 90.308 133.09 87.8678C133.148 87.8102 133.225 87.7525 133.283 87.7141C133.033 87.0992 133.456 86.5996 133.571 86.0424C133.628 86.004 133.667 85.9464 133.725 85.9079C133.59 85.0049 134.109 84.2363 134.205 83.3908C134.359 81.8345 134.724 80.3165 134.897 78.7794C135.3 75.513 135.435 72.2273 135.319 68.9416C135.415 68.3268 135.146 67.7119 135.358 67.0971L135.415 67.0778H135.473C135.473 67.1355 135.492 67.1931 135.492 67.2508C135.473 67.3853 135.473 67.5006 135.608 67.5774C135.684 68.0386 135.569 68.4805 135.473 68.9224C135.492 69.3259 135.473 69.7486 135.627 70.1521C135.627 71.1129 135.627 72.0928 135.627 73.0535C135.588 73.457 135.531 73.8605 135.492 74.264C135.473 74.4754 135.473 74.6867 135.454 74.8981C135.454 75.5706 135.454 76.2239 135.454 76.8964C135.281 77.0117 135.3 77.1846 135.319 77.3575C135.358 77.8187 135.166 78.299 135.473 78.7218C135.415 79.5672 135.396 80.4318 135.262 81.2773C134.801 84.2555 134.128 87.1761 133.321 90.0774C133.283 90.1927 133.225 90.308 133.187 90.4041C133.167 90.4425 133.167 90.5002 133.187 90.5386C132.668 92.0757 132.13 93.6129 131.611 95.15C131.515 95.2653 131.4 95.3806 131.361 95.5151C130.862 96.9562 130.285 98.3588 129.67 99.7615C129.786 99.7615 129.882 99.7807 129.997 99.7807C130.208 99.4156 130.381 99.0506 130.554 98.6663C130.727 98.282 130.9 97.8977 131.054 97.5134C130.9 97.8977 130.746 98.282 130.554 98.6663C130.381 99.0506 130.189 99.4156 129.997 99.7807C129.978 99.8576 129.959 99.9536 129.92 100.05C129.939 99.9728 129.959 99.8768 129.997 99.7807C129.882 99.7807 129.786 99.7615 129.67 99.7615C129.67 99.8191 129.651 99.8768 129.651 99.9344C129.651 100.088 129.651 100.242 129.651 100.396C129.651 100.434 129.67 100.472 129.67 100.511C129.67 100.472 129.67 100.434 129.651 100.396C129.651 100.242 129.651 100.088 129.651 99.9344C129.421 100.107 129.363 100.376 129.267 100.626C129.305 100.645 129.324 100.684 129.344 100.703C129.324 100.684 129.286 100.645 129.267 100.626C129.209 100.722 129.152 100.837 129.113 100.934C129.152 100.953 129.171 100.991 129.209 101.01C129.171 100.991 129.152 100.972 129.113 100.934C129.055 101.03 129.017 101.145 128.959 101.241C128.998 101.26 129.017 101.299 129.055 101.318C129.113 101.318 129.171 101.318 129.228 101.318C129.228 101.337 129.248 101.375 129.248 101.395C129.248 101.375 129.248 101.337 129.228 101.318C129.171 101.318 129.113 101.318 129.055 101.318C129.017 101.299 128.998 101.279 128.959 101.241C128.902 101.337 128.863 101.452 128.806 101.548C128.748 101.645 128.71 101.76 128.652 101.856C128.229 102.644 127.807 103.451 127.384 104.238C127.365 104.277 127.345 104.335 127.326 104.373C127.115 104.527 127.019 104.757 126.942 105.007C126.903 105.045 126.903 105.103 126.903 105.142C126.596 105.257 126.75 105.583 126.615 105.756C126.212 106.41 125.808 107.082 125.405 107.735C124.636 108.043 124.502 108.869 124.098 109.446C124.041 109.542 124.271 109.58 124.386 109.599C124.463 109.503 124.559 109.407 124.636 109.292C124.559 109.388 124.482 109.503 124.386 109.599C124.31 109.695 124.233 109.791 124.175 109.887C124.041 109.926 123.848 109.734 123.752 109.887C123.637 110.06 123.791 110.156 123.944 110.214C123.868 110.31 123.791 110.425 123.714 110.522C123.618 110.387 123.483 110.291 123.349 110.406C123.137 110.598 123.33 110.771 123.406 110.944C121.12 114.172 118.507 117.093 115.625 119.802C111.686 123.51 107.42 126.662 102.828 129.236C102.828 129.217 102.809 129.198 102.809 129.179C102.789 129.198 102.751 129.217 102.77 129.236C102.77 129.256 102.77 129.256 102.789 129.275C102.713 129.313 102.636 129.371 102.559 129.409C102.52 129.39 102.501 129.352 102.463 129.352C102.424 129.352 102.347 129.371 102.347 129.39C102.328 129.448 102.367 129.486 102.405 129.486C98.2933 131.753 93.9124 133.579 89.2817 134.924C84.4589 136.326 79.5592 137.172 74.6019 137.46C73.7181 137.479 72.8534 137.537 71.9696 137.556C71.9888 137.556 72.008 137.556 72.0272 137.556C71.1049 137.575 70.1826 137.575 69.2411 137.556C68.5686 137.441 67.8961 137.441 67.2236 137.556C67.8961 137.825 68.5686 137.806 69.2603 137.768C70.9704 137.768 72.6805 137.806 74.3906 137.768C75.4282 137.787 76.4465 137.748 77.4841 137.71C77.3496 137.671 77.1959 137.652 77.0614 137.614C80.347 137.364 83.5943 136.845 86.8223 136.134C86.8607 136.192 86.9184 136.25 86.9568 136.307C81.9418 137.691 76.7732 138.248 71.6045 138.709C74.8709 139.228 78.099 138.882 81.3078 138.402C89.0127 137.268 96.295 134.847 103.116 131.1C114.529 124.855 123.406 116.036 129.651 104.623C134.858 95.1116 137.356 84.8511 137.683 74.0334C137.817 69.5565 137.471 65.0988 136.78 60.6602C135.684 54.1274 133.974 47.729 130.823 41.8109ZM11.5788 48.094C11.5212 48.2478 11.4635 48.3823 11.4059 48.536V48.5552C11.3867 48.5936 11.3867 48.6128 11.3674 48.6513C11.3482 48.7281 11.3098 48.805 11.2906 48.8818C11.2329 49.0355 11.1753 49.1893 11.1369 49.343C11.0792 49.4967 11.0216 49.6504 10.9639 49.8041C10.9063 49.7465 10.8294 49.7081 10.7718 49.6504C10.8294 49.4967 10.8871 49.343 10.9639 49.1893C11.0216 49.2469 11.0792 49.2853 11.1561 49.343C11.2137 49.1893 11.2714 49.0355 11.3098 48.8818C11.2522 48.8434 11.1945 48.7858 11.1369 48.7473C11.1753 48.632 11.2137 48.536 11.2714 48.4207C11.3482 48.2862 11.4059 48.1325 11.4827 47.998C11.5019 48.0172 11.5404 48.0556 11.5788 48.094C11.6172 48.0172 11.6557 47.9403 11.6557 47.8635C11.6557 47.9211 11.6172 48.0172 11.5788 48.094ZM124.636 106.948C124.617 106.967 124.617 106.986 124.598 107.005C124.598 106.986 124.617 106.967 124.636 106.948C124.694 106.832 124.732 106.698 124.771 106.583C124.713 106.698 124.675 106.832 124.636 106.948C124.713 106.928 124.771 106.909 124.848 106.89C124.771 106.909 124.694 106.928 124.636 106.948ZM92.8172 134.443C92.798 134.463 92.7595 134.501 92.7403 134.52C92.7787 134.482 92.798 134.463 92.8172 134.443C92.8556 134.463 92.9132 134.482 92.9517 134.482C92.9132 134.463 92.8748 134.443 92.8172 134.443ZM93.3359 134.27C93.2975 134.29 93.2591 134.309 93.2207 134.328C93.2399 134.309 93.2975 134.29 93.3359 134.27C93.3744 134.29 93.4128 134.309 93.4512 134.347C93.4128 134.328 93.3744 134.29 93.3359 134.27ZM93.7394 134.27C93.7779 134.251 93.8163 134.251 93.8547 134.232C93.8355 134.251 93.7779 134.251 93.7394 134.27ZM103.596 129.755C103.635 129.774 103.654 129.794 103.692 129.813C103.654 129.774 103.635 129.774 103.596 129.755ZM104 129.64C103.961 129.621 103.923 129.601 103.904 129.582C103.904 129.582 103.904 129.582 103.923 129.563C103.923 129.563 103.923 129.582 103.904 129.582C103.942 129.601 103.961 129.621 104 129.64ZM104.423 129.428C104.384 129.39 104.346 129.352 104.327 129.313C104.365 129.352 104.403 129.39 104.423 129.428ZM105.46 128.833C105.383 128.89 105.287 128.929 105.21 128.987C105.287 128.948 105.383 128.89 105.46 128.833ZM107.497 127.545C107.074 127.795 106.652 128.064 106.248 128.314C106.21 128.276 106.171 128.218 106.113 128.18C106.498 127.911 106.901 127.642 107.286 127.392C106.901 127.661 106.498 127.93 106.113 128.18C106.152 128.218 106.19 128.276 106.248 128.314C106.652 128.064 107.074 127.814 107.497 127.545C107.612 127.469 107.747 127.411 107.862 127.334C107.747 127.411 107.612 127.488 107.497 127.545ZM128.94 101.894C128.94 101.913 128.959 101.952 128.959 101.971C128.94 101.952 128.94 101.913 128.94 101.894C128.94 101.798 128.94 101.683 128.94 101.587C128.921 101.683 128.94 101.798 128.94 101.894ZM128.786 102.202C128.806 102.24 128.806 102.298 128.806 102.355C128.806 102.298 128.806 102.259 128.786 102.202ZM127.057 105.545C127.019 105.583 126.98 105.622 126.923 105.66C126.961 105.641 127.019 105.603 127.057 105.545ZM127.211 107.197C126.788 107.908 126.346 108.6 125.904 109.292C126.346 108.6 126.788 107.889 127.211 107.197C127.153 107.159 127.115 107.121 127.057 107.082C127.096 107.101 127.153 107.159 127.211 107.197C127.384 106.909 127.538 106.64 127.71 106.352C127.538 106.64 127.365 106.909 127.211 107.197ZM128.883 103.969C128.921 104.008 128.959 104.046 129.017 104.085C128.979 104.046 128.921 104.008 128.883 103.969ZM129.305 103.259C129.305 103.278 129.324 103.297 129.324 103.316C129.324 103.297 129.324 103.278 129.305 103.259ZM129.536 103.028C129.497 103.009 129.478 102.99 129.44 102.97C129.478 102.97 129.517 103.009 129.536 103.028ZM129.613 102.663C129.632 102.701 129.651 102.72 129.651 102.759C129.651 102.72 129.632 102.682 129.613 102.663ZM129.747 102.471C129.786 102.471 129.805 102.451 129.843 102.432C129.805 102.432 129.786 102.471 129.747 102.471ZM129.92 102.048C129.939 102.067 129.959 102.086 129.978 102.106C129.959 102.067 129.939 102.048 129.92 102.048ZM130.304 101.587C130.285 101.548 130.266 101.51 130.247 101.452C130.266 101.491 130.285 101.529 130.304 101.587ZM130.4 101.068C130.362 101.106 130.324 101.145 130.324 101.183C130.324 101.126 130.362 101.106 130.4 101.068C130.439 101.01 130.42 100.876 130.497 100.857C130.439 100.876 130.439 101.01 130.4 101.068C130.439 101.106 130.458 101.126 130.497 101.164C130.458 101.126 130.439 101.087 130.4 101.068ZM131.169 99.5117C131.188 99.5501 131.188 99.5886 131.207 99.627C131.188 99.6078 131.188 99.5501 131.169 99.5117ZM135.204 61.6786C135.262 61.621 135.319 61.5825 135.377 61.5249C135.319 61.5633 135.262 61.621 135.204 61.6786C135.204 61.717 135.223 61.7362 135.223 61.7747C135.204 61.7362 135.204 61.6978 135.204 61.6786C135.166 61.6594 135.146 61.6402 135.127 61.6017C135.146 61.621 135.166 61.6594 135.204 61.6786ZM135.166 61.1406C135.204 61.1022 135.204 61.0253 135.204 60.9677C135.223 61.0445 135.223 61.1022 135.166 61.1406ZM133.897 54.0889C133.917 54.0697 133.955 54.0697 133.974 54.0505C133.955 54.0505 133.917 54.0697 133.897 54.0889C133.878 54.0505 133.878 54.0313 133.859 53.9929C133.878 54.0121 133.878 54.0505 133.897 54.0889ZM134.339 61.4672C134.339 61.5633 134.378 61.6402 134.397 61.717C134.359 61.6402 134.339 61.5633 134.339 61.4672C134.186 60.5257 134.051 59.5842 133.897 58.6619C134.032 59.6035 134.186 60.545 134.339 61.4672ZM134.916 65.5215C135.012 65.5215 135.089 65.5023 135.185 65.5023C135.204 65.3678 135.185 65.2333 135.262 65.0988C135.185 65.2333 135.204 65.387 135.185 65.5023C135.089 65.5023 134.993 65.5215 134.916 65.5215ZM135.511 67.0202C135.531 66.732 135.55 66.4246 135.569 66.1363C135.377 66.1363 135.223 66.0787 135.127 66.0018C135.242 66.0979 135.377 66.1363 135.569 66.1363C135.55 66.4438 135.531 66.732 135.511 67.0202ZM135.531 65.9442C135.531 65.9058 135.531 65.8481 135.511 65.8097C135.531 65.8481 135.531 65.8866 135.531 65.9442C135.569 65.9826 135.627 66.0018 135.646 66.0403C135.627 66.0018 135.569 65.9634 135.531 65.9442ZM135.358 62.6201V62.6009L135.339 62.5817C135.339 62.5817 135.358 62.6009 135.358 62.6201C135.377 62.6201 135.377 62.6201 135.358 62.6201Z" fill="#6B4A8F"/>
<path d="M52.5051 132.657C48.8736 131.293 45.415 129.564 42.0717 127.565C41.8411 127.431 41.6298 127.2 41.1494 127.239C42.8979 128.372 44.5888 129.333 46.2989 130.198C48.4509 131.293 50.6413 132.33 52.947 133.041C53.0047 132.696 52.6973 132.715 52.5051 132.657Z" fill="#6B4A8F"/>
<path d="M33.5021 124.124C33.5021 124.085 33.4637 124.066 33.4253 124.047C33.1563 123.816 32.9065 123.566 32.6183 123.336C29.1213 120.396 26.0085 117.091 23.1648 113.517C21.0705 110.885 19.3027 108.06 17.5158 105.236C16.5359 103.641 15.7096 101.969 14.7874 100.355C15.4983 102.104 16.3053 103.833 17.3237 105.428C19.6102 109.578 22.3386 113.421 25.5282 116.918C27.93 119.551 30.3894 122.087 33.2332 124.239L33.2908 124.277C34.4629 125.334 35.7887 126.237 37.0952 127.121C38.5363 128.159 40.0158 129.119 41.6106 129.869C40.1311 128.927 38.7092 127.928 37.249 126.967C36.0192 126.026 34.7511 125.065 33.5021 124.124Z" fill="#6B4A8F"/>
<path d="M52.6201 135.135C51.4288 134.616 50.2375 134.116 49.0654 133.598C50.1414 134.328 51.3519 134.827 52.6201 135.135Z" fill="#6B4A8F"/>
<path d="M53.3315 135.537C54.0617 135.825 54.7534 136.209 55.5796 136.19C54.8495 135.864 54.177 135.46 53.3315 135.537Z" fill="#6B4A8F"/>
<path d="M53.0044 133.039C53.7922 133.404 54.6184 133.654 55.4446 133.885C56.5206 134.269 57.6158 134.557 58.7687 134.634C57.6543 134.307 56.5591 134 55.4446 133.673C54.6184 133.462 53.8883 132.943 53.0044 133.039Z" fill="#6B4A8F"/>
<path d="M52.9663 133.043C52.9663 133.062 52.9855 133.062 52.9855 133.043C52.9855 133.043 52.9855 133.043 52.9663 133.043Z" fill="#6B4A8F"/>
<path d="M93.2974 130.468C94.1236 130.468 94.8345 130.161 95.5839 129.911C95.5647 129.853 95.5262 129.776 95.507 129.719C94.7769 129.969 94.0275 130.218 93.2974 130.468Z" fill="#6B4A8F"/>
<path d="M81.5957 137.132C81.5957 137.209 81.5957 137.267 81.5957 137.344C82.249 137.267 82.9023 137.228 83.4979 136.863C82.8639 136.94 82.2298 137.036 81.5957 137.132Z" fill="#6B4A8F"/>
<path d="M67.0122 138.304C67.7039 138.401 68.3956 138.593 69.1066 138.458C68.4341 138.228 67.7231 138.208 67.0122 138.304Z" fill="#6B4A8F"/>
<path d="M75.7354 133.501C75.1205 133.54 74.6017 133.367 73.9292 133.77C74.6401 133.674 75.1781 133.943 75.7354 133.501Z" fill="#6B4A8F"/>
<path d="M8.52295 76.0917C8.54216 76.0917 8.56138 76.0917 8.58059 76.0917C8.58059 75.4384 8.58059 74.8044 8.58059 74.1511C8.56138 74.1319 8.54216 74.1126 8.52295 74.0742C8.52295 74.7467 8.52295 75.4192 8.52295 76.0917Z" fill="#6B4A8F"/>
<path d="M42.7434 130.444C42.4362 130.271 42.129 130.099 41.8218 129.926C42.033 130.252 42.3018 130.502 42.7434 130.444Z" fill="#6B4A8F"/>
<path d="M64.4761 138.076C64.8601 138.114 65.2633 138.153 65.6473 138.191C65.2633 137.865 64.8793 137.884 64.4761 138.076Z" fill="#6B4A8F"/>
<path d="M38.7861 125.43C38.7477 125.468 38.7093 125.506 38.6709 125.526C38.8629 125.718 39.0357 125.929 39.5157 125.929C39.1893 125.698 38.9973 125.564 38.7861 125.43Z" fill="#6B4A8F"/>
<path d="M37.7102 124.738C37.8637 125.026 38.0172 125.141 38.3433 125.218C38.1898 124.911 38.0172 124.796 37.7102 124.738Z" fill="#6B4A8F"/>
<path d="M62.6311 137.767C62.823 137.767 62.9764 137.767 63.2834 137.767C62.9956 137.613 62.823 137.575 62.6311 137.767Z" fill="#6B4A8F"/>
<path d="M63.4761 137.86C63.7063 137.975 63.8982 137.956 64.1668 137.86C63.8982 137.764 63.7063 137.726 63.4761 137.86Z" fill="#6B4A8F"/>
<path d="M40.7072 126.756C40.6496 126.679 40.5728 126.641 40.4768 126.602C40.4576 126.583 40.304 126.622 40.4 126.718C40.4576 126.794 40.5344 126.833 40.6112 126.91C40.6688 126.852 40.8032 126.852 40.7072 126.756Z" fill="#6B4A8F"/>
<path d="M40.1303 126.545C40.1686 126.564 40.2836 126.545 40.2452 126.449C40.2069 126.373 40.1303 126.315 40.0728 126.258C39.9771 126.277 39.8813 126.277 39.9387 126.373C39.9771 126.449 40.0537 126.507 40.1303 126.545Z" fill="#6B4A8F"/>
<path d="M41.168 127.082C41.1296 127.006 41.0339 126.948 40.9572 126.891C40.8998 126.929 40.8806 126.967 40.8423 126.986C40.9189 127.044 40.9764 127.14 41.053 127.178C41.1105 127.197 41.2254 127.178 41.168 127.082Z" fill="#6B4A8F"/>
<path d="M39.4776 126.085C39.4968 126.142 39.5736 126.2 39.6312 126.238C39.6696 126.258 39.7464 126.238 39.8808 126.219C39.7464 126.123 39.6696 126.046 39.5928 126.008C39.5352 125.95 39.4392 125.97 39.4776 126.085Z" fill="#6B4A8F"/>
<path d="M38.402 125.282C38.3252 125.358 38.5364 125.493 38.69 125.531C38.7284 125.493 38.7668 125.454 38.8052 125.435C38.6708 125.339 38.5748 125.09 38.402 125.282Z" fill="#6B4A8F"/>
<path d="M37.69 124.643C37.6325 124.604 37.575 124.566 37.5175 124.547C37.4984 124.547 37.4601 124.604 37.4409 124.623C37.4984 124.662 37.5367 124.7 37.5942 124.738C37.5942 124.738 37.6516 124.681 37.69 124.643Z" fill="#6B4A8F"/>
<path d="M53.1581 135.269V135.23L53.1006 135.25L53.1581 135.269Z" fill="#6B4A8F"/>
<path d="M47.586 131.31C47.6052 131.291 47.6243 131.253 47.6626 131.234C47.6052 131.214 47.5477 131.195 47.4902 131.195C47.5285 131.234 47.5669 131.272 47.586 131.31Z" fill="#6B4A8F"/>
<path d="M47.4517 131.176C47.4708 131.195 47.4708 131.195 47.49 131.195C47.4708 131.195 47.4708 131.176 47.4517 131.176Z" fill="#6B4A8F"/>
<path d="M47.2597 131.079C47.2406 131.079 47.2406 131.117 47.2214 131.136C47.2981 131.155 47.3747 131.155 47.4513 131.174C47.413 131.098 47.3555 131.04 47.2597 131.079Z" fill="#6B4A8F"/>
<path d="M46.7016 130.868C46.7208 130.848 46.7208 130.848 46.7016 130.868C46.6249 130.791 46.529 130.733 46.433 130.676C46.4139 130.695 46.3947 130.714 46.3755 130.753C46.433 130.887 46.5673 130.887 46.6825 130.887C46.7208 130.983 46.7976 131.021 46.9127 131.002C46.9319 131.002 46.9511 130.964 46.9702 130.964C46.8743 130.906 46.7976 130.887 46.7016 130.868Z" fill="#6B4A8F"/>
<path d="M46.1452 130.523C46.126 130.543 46.0876 130.581 46.0684 130.6C46.1644 130.658 46.2796 130.696 46.3756 130.754C46.3948 130.735 46.414 130.715 46.4332 130.677C46.3372 130.619 46.2412 130.562 46.1452 130.523Z" fill="#6B4A8F"/>
<path d="M42.9175 130.622C42.8215 130.756 43.0327 130.756 43.0903 130.833C43.3591 130.967 43.6087 131.198 43.9735 131.102C43.7047 130.987 43.4359 130.852 43.1863 130.737C43.1095 130.603 42.9943 130.507 42.9175 130.622Z" fill="#6B4A8F"/>
<path d="M45.3381 130.213C45.3381 130.232 45.3573 130.251 45.3764 130.251C45.3956 130.232 45.4148 130.194 45.4339 130.175C45.4148 130.155 45.3956 130.136 45.3956 130.117C45.3764 130.156 45.3573 130.175 45.3381 130.213Z" fill="#6B4A8F"/>
<path d="M45.646 130.351C45.646 130.37 45.6843 130.389 45.7035 130.408C45.7226 130.37 45.7226 130.351 45.7418 130.312C45.7226 130.312 45.7035 130.312 45.6843 130.312C45.6652 130.313 45.646 130.332 45.646 130.351Z" fill="#6B4A8F"/>
<path d="M45.9533 130.465C45.8958 130.561 45.9916 130.561 46.0491 130.599C46.0682 130.58 46.1065 130.541 46.1257 130.522C46.0682 130.503 45.9724 130.446 45.9533 130.465Z" fill="#6B4A8F"/>
<path d="M13.2695 50.5347C13.3271 50.5922 13.4038 50.6306 13.4614 50.6882C13.5189 50.5347 13.5765 50.3812 13.6341 50.2277C13.5765 50.1701 13.5189 50.1318 13.4422 50.0742C13.3846 50.2277 13.3271 50.3812 13.2695 50.5347Z" fill="#6B4A8F"/>
<path d="M14.8445 50.3792C14.9021 50.2257 14.9405 50.0723 14.998 49.9188C14.9405 49.8612 14.8829 49.8037 14.8254 49.7461C14.7678 49.8804 14.7102 50.0147 14.6719 50.1682C14.7294 50.2257 14.787 50.3025 14.8445 50.3792Z" fill="#6B4A8F"/>
<path d="M14.8257 49.7463C14.8832 49.8039 14.9408 49.8614 14.9984 49.919C15.0559 49.7655 15.1135 49.612 15.1902 49.4585C15.1327 49.4201 15.0751 49.3626 15.0175 49.3242C14.9408 49.4585 14.8832 49.612 14.8257 49.7463Z" fill="#6B4A8F"/>
<path d="M13.75 49.3046C13.8076 49.3429 13.8651 49.4005 13.9035 49.4388V49.4197C13.961 49.2662 14.0186 49.1319 14.0762 48.9784C14.0378 48.94 13.9994 48.9017 13.9419 48.8633C13.8843 49.036 13.8267 49.1703 13.75 49.3046Z" fill="#6B4A8F"/>
<path d="M13.615 49.631C13.6726 49.6693 13.7301 49.7269 13.7877 49.7653C13.8069 49.6885 13.8453 49.6118 13.8645 49.535C13.8837 49.4966 13.8837 49.4774 13.9029 49.439C13.8453 49.4007 13.7877 49.3431 13.7493 49.3047C13.711 49.4198 13.6726 49.5158 13.615 49.631Z" fill="#6B4A8F"/>
<path d="M18.4575 78.3747H29.5442V80.4498H25.048V92.2282H22.9729V80.4498H18.4575V78.3747ZM39.3435 78.3747V84.2543H32.4264V78.3747H30.3512V92.2282H32.4264V86.3294H39.3435V92.2282H41.4187V78.3747H39.3435ZM52.4093 78.3747V80.4498H44.7812V84.2543H51.0067V86.3294H44.7812V90.1531H52.4093V92.2282H42.7061V78.3747H52.4093ZM55.2723 78.3747V92.2282H53.1971V78.3747H55.2723ZM67.6463 83.9084C67.6463 84.8499 67.4157 85.7338 66.9738 86.56C66.5319 87.3862 65.917 88.0395 65.1484 88.5391L67.6463 92.2282H65.5712L63.5729 89.25C63.1309 89.3845 62.6314 89.4422 62.1126 89.4422H58.654V92.2282H56.5788V78.3747H62.1126C63.6497 78.3747 64.9563 78.9127 66.0323 79.9887C67.1083 81.0839 67.6463 82.3905 67.6463 83.9084ZM58.6348 80.4498V87.367H62.0934C63.0541 87.367 63.8803 87.0212 64.5528 86.3486C65.2253 85.6761 65.5712 84.8499 65.5712 83.8892C65.5712 82.9285 65.2253 82.1023 64.5528 81.4298C63.8803 80.7573 63.0541 80.4114 62.0934 80.4114H58.6348V80.4498ZM76.0622 78.3747V90.1531H83.6711V92.2282H73.9678V78.3747H76.0622ZM86.5532 78.3747V92.2282H84.4781V78.3747H86.5532ZM93.5665 89.3269L97.5823 78.3747H99.8112L94.6233 92.2282H92.5481L87.341 78.3747H89.5507L93.5665 89.3269ZM110.302 78.3747V80.4498H102.674V84.2543H108.9V86.3294H102.674V90.1531H110.302V92.2282H100.599V78.3747H110.302ZM113.665 82.525C113.665 82.8708 113.876 83.1591 114.337 83.3896C114.779 83.6202 115.336 83.7931 116.009 83.9084C116.681 84.0237 117.412 84.1774 118.18 84.3696C118.949 84.5617 119.679 84.7923 120.351 85.0421C121.024 85.2919 121.581 85.6761 122.023 86.1949C122.465 86.7137 122.695 87.3478 122.695 88.0779C122.695 89.4422 122.215 90.4605 121.235 91.1715C120.274 91.8824 118.91 92.2282 117.143 92.2282C116.143 92.2282 115.202 92.1514 114.28 91.9977C113.357 91.844 112.685 91.6902 112.243 91.5173L111.609 91.2675L112.397 89.3461C114.356 89.8841 115.951 90.1531 117.143 90.1531C117.815 90.1531 118.391 90.0762 118.872 89.9417C119.352 89.8072 119.698 89.6535 119.929 89.4998C120.14 89.3461 120.313 89.154 120.428 88.9042C120.543 88.6544 120.601 88.4814 120.601 88.4046C120.601 88.3277 120.62 88.2124 120.62 88.0587C120.62 87.7129 120.39 87.4247 119.948 87.2133C119.506 86.9827 118.949 86.829 118.276 86.7137C117.604 86.6176 116.874 86.4639 116.105 86.2718C115.336 86.0796 114.606 85.8683 113.934 85.6185C113.261 85.3687 112.704 84.9844 112.262 84.4656C111.82 83.9469 111.59 83.2936 111.59 82.525C111.59 81.18 112.089 80.1424 113.069 79.4315C114.049 78.7205 115.413 78.3555 117.123 78.3555C118.161 78.3555 119.064 78.4515 119.871 78.6245C120.678 78.8166 121.216 78.9895 121.504 79.1817L121.965 79.4507L121.139 81.3529C119.66 80.7381 118.315 80.4306 117.123 80.4306C116.451 80.4306 115.874 80.5075 115.394 80.642C114.914 80.7765 114.568 80.9302 114.337 81.0839C114.126 81.2376 113.953 81.4298 113.838 81.6796C113.722 81.9293 113.665 82.1023 113.665 82.1791C113.665 82.2752 113.665 82.3905 113.665 82.525Z" fill="#6B4A8F"/>
<path d="M31.965 67.9799H36.4995C35.827 72.7834 31.8881 75.9538 27.1037 75.9538C21.8582 75.9538 17.6118 71.938 17.6118 66.5388C17.6118 61.1395 21.8582 57.0469 27.1037 57.0469C31.8305 57.0469 35.8847 60.2557 36.4611 64.9632H31.9265C30.5623 59.6216 22.0696 60.1404 22.0696 66.5388C22.0888 72.9756 30.6968 73.4175 31.965 67.9799ZM42.8019 64.2715H47.6247V57.3543H52.1016V75.704H47.6247V68.5947H42.8019V75.704H38.3249V57.3351H42.8019V64.2715ZM65.6478 72.9948H59.3839L58.3655 75.704H53.5619L60.9018 57.1429H64.1106L71.7387 75.704H66.6853L65.6478 72.9948ZM61.1708 68.4026L61.0171 68.8253H64.053L63.9569 68.5179L62.535 64.5405L61.1708 68.4026ZM72.9492 75.704V57.3351H76.4078L82.7485 66.5196V57.3351H87.1871V75.704H83.6708L77.4069 66.7693V75.704H72.9492ZM93.8929 66.5388C93.8929 69.6515 95.9296 71.7074 98.6388 71.7074C99.8685 71.7074 101.29 71.3232 102.251 69.9974H96.6405V65.9816H107.881C107.881 68.1144 107.516 69.4401 107.228 70.1319C105.94 73.6481 102.078 75.973 98.658 75.973C93.3549 75.973 89.3775 72.0149 89.3775 66.5388C89.3775 61.0242 93.4702 57.0661 98.658 57.0661C102.232 57.0661 107.074 59.026 107.843 64.8095H103.116C102.462 62.1771 100.33 61.447 98.658 61.447C95.9488 61.447 93.8929 63.5798 93.8929 66.5388ZM114.126 71.3616H121.715V75.704H109.61V57.3351H121.696V61.6583H114.106V64.3291H121.523V68.6908H114.106V71.3616H114.126Z" fill="#6B4A8F"/>
</svg>
